<?xml version="1.0" encoding="UTF-8"?>
<svg width="394px" height="475px" viewBox="0 0 394 475" version="1.1" xmlns="http://www.w3.org/2000/svg" xmlns:xlink="http://www.w3.org/1999/xlink">
    <!-- Generator: Sketch 53 (72520) - https://sketchapp.com -->
    <title>Group 9</title>
    <desc>Created with Sketch.</desc>
    <defs>
        <polygon id="path-1" points="0 0.2429 393.8289 0.2429 393.8289 386.8649 0 386.8649"></polygon>
        <polygon id="path-3" points="0.5482 0.1922 217.7902 0.1922 217.7902 475 0.5482 475"></polygon>
    </defs>
    <g id="Page-1" stroke="none" stroke-width="1" fill="none" fill-rule="evenodd">
        <g id="v" transform="translate(-188.000000, -100.000000)">
            <g id="Group-9" transform="translate(188.000000, 99.000000)">
                <g id="Group-3" transform="translate(0.000000, 88.808000)">
                    <mask id="mask-2" fill="white">
                        <use xlink:href="#path-1"></use>
                    </mask>
                    <g id="Clip-2"></g>
                    <path d="M19.9999,386.8649 L-0.0001,386.8649 L-0.0001,39.5669 C-0.0001,17.8839 17.6399,0.2429 39.3229,0.2429 L354.5049,0.2429 C376.1879,0.2429 393.8289,17.8839 393.8289,39.5669 L393.8289,178.1609 C393.8289,199.8439 376.1879,217.4849 354.5049,217.4849 L108.5479,217.4849 L108.5479,197.4849 L354.5049,197.4849 C365.1609,197.4849 373.8289,188.8169 373.8289,178.1609 L373.8289,39.5669 C373.8289,28.9119 365.1609,20.2429 354.5049,20.2429 L39.3229,20.2429 C28.6679,20.2429 19.9999,28.9119 19.9999,39.5669 L19.9999,386.8649 Z" id="Fill-1" fill="#000000" mask="url(#mask-2)"></path>
                </g>
                <g id="Group-6" transform="translate(88.000000, 0.808000)">
                    <mask id="mask-4" fill="white">
                        <use xlink:href="#path-3"></use>
                    </mask>
                    <g id="Clip-5"></g>
                    <path d="M20.5482,373.7042 L178.4662,373.7042 C189.1212,373.7042 197.7902,365.0362 197.7902,354.3802 L197.7902,39.5162 C197.7902,28.8612 189.1212,20.1922 178.4662,20.1922 L39.8722,20.1922 C29.2162,20.1922 20.5482,28.8612 20.5482,39.5162 L20.5482,373.7042 Z M20.5482,475.0002 L0.5482,475.0002 L0.5482,39.5162 C0.5482,17.8322 18.1892,0.1922 39.8722,0.1922 L178.4662,0.1922 C200.1502,0.1922 217.7902,17.8322 217.7902,39.5162 L217.7902,354.3802 C217.7902,376.0632 200.1502,393.7042 178.4662,393.7042 L20.5482,393.7042 L20.5482,475.0002 Z" id="Fill-4" fill="#000000" mask="url(#mask-4)"></path>
                </g>
                <path d="M64.308,475.7095 L44.308,475.7095 L44.308,84.3695 C44.308,62.6865 61.949,45.0455 83.632,45.0455 L310.454,45.0455 C332.138,45.0455 349.779,62.6865 349.779,84.3695 L349.779,311.0475 C349.779,332.7305 332.138,350.3715 310.454,350.3715 L108.548,350.3715 L108.548,330.3715 L310.454,330.3715 C321.11,330.3715 329.779,321.7035 329.779,311.0475 L329.779,84.3695 C329.779,73.7145 321.11,65.0455 310.454,65.0455 L83.632,65.0455 C72.976,65.0455 64.308,73.7145 64.308,84.3695 L64.308,475.7095 Z" id="Fill-7" fill="#000000"></path>
            </g>
        </g>
    </g>
</svg>
